<svg xmlns="http://www.w3.org/2000/svg" version="1.1" xmlns:xlink="http://www.w3.org/1999/xlink" width="96" height="96"><svg width="96" height="96" viewBox="0 0 96 96" fill="none" xmlns="http://www.w3.org/2000/svg">
<path d="M68.8326 39.5294C69.5844 39.5294 70.0584 38.7132 69.6911 38.0512L48.8583 0.507812C48.4826 -0.169268 47.517 -0.169272 47.1413 0.507809L26.3085 38.0512C25.9412 38.7132 26.4153 39.5294 27.167 39.5294L37.7679 39.5294C38.128 39.5294 38.4593 39.3309 38.6317 39.0119L47.136 23.2774C47.509 22.5874 48.4907 22.5874 48.8636 23.2774L57.3679 39.0119C57.5403 39.3309 57.8717 39.5294 58.2317 39.5294L68.8326 39.5294Z" fill="#F04D27"></path>
<path d="M2 47.7434C0.895431 47.7434 0 48.6436 0 49.7541V57.3143C0 58.4248 0.895429 59.325 2 59.325H33.432L13.2592 78.7945C12.4624 79.5635 12.4624 80.8104 13.2592 81.5794L18.8589 86.9839C19.6557 87.753 20.9476 87.753 21.7445 86.9839L42 67.4346L42 93.9894C42 95.0999 42.8954 96.0001 44 96.0001H52C53.1046 96.0001 54 95.0999 54 93.9894L54 67.107L74.425 86.8198C75.2218 87.5889 76.5137 87.5889 77.3105 86.8198L82.5715 81.7422C83.3683 80.9732 83.3683 79.7263 82.5715 78.9573L62.23 59.325H94C95.1046 59.325 96 58.4248 96 57.3143V49.7541C96 48.6436 95.1046 47.7434 94 47.7434H2Z" fill="#242525"></path>
</svg><style>@media (prefers-color-scheme: light) { :root { filter: none; } }
@media (prefers-color-scheme: dark) { :root { filter: none; } }
</style></svg>